<?xml version="1.0" encoding="utf-8"?><!-- Uploaded to: SVG Repo, www.svgrepo.com, Generator: SVG Repo Mixer Tools -->
<svg fill="#000000" width="800px" height="800px" viewBox="0 0 24 24" id="add-file" data-name="Flat Line" xmlns="http://www.w3.org/2000/svg" class="icon flat-line"><path id="secondary" d="M17,5V3H6A1,1,0,0,0,5,4V20a1,1,0,0,0,1,1H18a1,1,0,0,0,1-1V5Z" style="fill: rgb(44, 169, 188); stroke-width: 2;"></path><path id="primary" d="M10,12h4m-2-2v4M17,3H6A1,1,0,0,0,5,4V20a1,1,0,0,0,1,1H18a1,1,0,0,0,1-1V5Zm0,0V5h2Z" style="fill: none; stroke: rgb(0, 0, 0); stroke-linecap: round; stroke-linejoin: round; stroke-width: 2;"></path></svg>