<?xml version="1.0" encoding="iso-8859-1"?>
<!-- Uploaded to: SVG Repo, www.svgrepo.com, Generator: SVG Repo Mixer Tools -->
<svg height="800px" width="800px" version="1.1" id="Layer_1" xmlns="http://www.w3.org/2000/svg" xmlns:xlink="http://www.w3.org/1999/xlink" 
	 viewBox="0 0 512 512" xml:space="preserve">
<path style="fill:#6A82A1;" d="M256,512C114.842,512,0,397.158,0,256S114.842,0,256,0s256,114.842,256,256S397.16,512,256,512z"/>
<path style="fill:#2C3E50;" d="M256,0v512c141.158,0,256-114.842,256-256S397.16,0,256,0z"/>
<path style="fill:#C7E9F4;" d="M256,451.783c-107.955,0-195.783-87.829-195.783-195.783S148.045,60.217,256,60.217
	S451.783,148.045,451.783,256S363.955,451.783,256,451.783z"/>
<path style="fill:#80D0E1;" d="M256,60.217v391.565c107.955,0,195.783-87.829,195.783-195.783S363.955,60.217,256,60.217z"/>
<path style="fill:#65C6BB;" d="M159.533,245.348c-23.659-23.658-23.659-62.153,0-85.812c23.658-23.659,62.154-23.661,85.812,0
	c23.658,23.658,23.658,62.153,0,85.812S183.192,269.007,159.533,245.348z M189.426,189.429c-7.174,7.176-7.174,18.85,0,26.025
	s18.85,7.174,26.025,0c7.174-7.176,7.174-18.85,0-26.025C208.279,182.256,196.602,182.254,189.426,189.429z"/>
<circle style="fill:#20B8AE;" cx="196.217" cy="315.788" r="22.143"/>
<path style="fill:#65C6BB;" d="M265.609,352.568c-37.823-38.652-9.774-103.571,44.028-103.113
	c53.517,0.582,80.582,66.075,41.779,104.044C327.472,376.929,289.067,376.542,265.609,352.568z M296.109,296.978
	c-7.269,7.112-7.4,18.752-0.283,26.022l0.001,0.001c7.256,7.415,18.914,7.239,26.022,0.282c7.269-7.112,7.398-18.752,0.283-26.022
	C315.027,290.001,303.38,289.863,296.109,296.978z"/>
<g>
	<path style="fill:#20B8AE;" d="M256,173.931v57.023C265.443,213.191,265.443,191.692,256,173.931z"/>
	<path style="fill:#20B8AE;" d="M352.347,267.694c-28.371-28.996-76.554-22.468-96.347,12.82v59.22
		c2.594,4.625,5.802,8.944,9.609,12.835c23.429,23.944,61.834,24.389,85.806,0.931C375.386,330.045,375.806,291.667,352.347,267.694
		z M321.849,323.284c-7.112,6.96-18.769,7.131-26.022-0.282l-0.001-0.001c-7.112-7.269-6.988-18.907,0.283-26.022
		c7.26-7.105,18.907-6.988,26.022,0.283C329.245,304.53,329.119,316.17,321.849,323.284z"/>
</g>
<circle style="fill:#1DA49C;" cx="316.436" cy="196.866" r="22.143"/>
</svg>