<?xml version="1.0" encoding="iso-8859-1"?>
<!-- Uploaded to: SVG Repo, www.svgrepo.com, Generator: SVG Repo Mixer Tools -->
<svg height="800px" width="800px" version="1.1" id="Layer_1" xmlns="http://www.w3.org/2000/svg" xmlns:xlink="http://www.w3.org/1999/xlink" 
	 viewBox="0 0 512 512" xml:space="preserve">
<path style="fill:#D4F5FF;" d="M486.881,461.228c0,23.613-19.143,42.756-42.756,42.756c-23.613,0-42.756-19.143-42.756-42.756
	c0-27.42,27.477-65.832,38.378-79.991c2.224-2.889,6.533-2.889,8.757,0C459.404,395.396,486.881,433.807,486.881,461.228z"/>
<path style="fill:#D5DCED;" d="M375.716,161.937H16.568c-4.722,0-8.551,3.829-8.551,8.551V256c0,4.722,3.829,8.551,8.551,8.551
	h359.148c9.446,0,17.102,7.656,17.102,17.102v25.653h102.614v-25.653C495.432,215.536,441.834,161.937,375.716,161.937z"/>
<path style="fill:#7F8499;" d="M136.284,8.017L136.284,8.017c-9.446,0-17.102,7.656-17.102,17.102v94.063h34.205V25.119
	C153.386,15.673,145.73,8.017,136.284,8.017z"/>
<path style="fill:#AFB9D2;" d="M161.937,110.63H110.63c-9.445,0-17.102,7.656-17.102,17.102v25.653h85.511v-25.653
	C179.04,118.287,171.382,110.63,161.937,110.63z"/>
<path style="fill:#959CB5;" d="M144.835,110.63H110.63c-9.445,0-17.102,7.656-17.102,17.102v25.653h34.205v-25.653
	C127.733,118.287,135.39,110.63,144.835,110.63z"/>
<path style="fill:#5B5D6E;" d="M247.449,76.426H25.119c-9.446,0-17.102-7.656-17.102-17.102l0,0c0-9.446,7.656-17.102,17.102-17.102
	h222.33c9.446,0,17.102,7.656,17.102,17.102l0,0C264.551,68.769,256.895,76.426,247.449,76.426z"/>
<g>
	<path style="fill:#C7CFE2;" d="M427.023,281.653v17.102h-34.205v-17.102c0-9.446-7.656-17.102-17.102-17.102H16.568
		c-4.722,0-8.551-3.829-8.551-8.551v-25.653h367.699C404.052,230.347,427.023,253.317,427.023,281.653z"/>
	<path style="fill:#C7CFE2;" d="M495.432,341.511H392.818c-4.722,0-8.551-3.829-8.551-8.551v-25.653
		c0-4.722,3.829-8.551,8.551-8.551h102.614c4.722,0,8.551,3.829,8.551,8.551v25.653
		C503.983,337.683,500.155,341.511,495.432,341.511z"/>
	<path style="fill:#C7CFE2;" d="M196.142,281.653H76.426c-9.446,0-17.102-7.656-17.102-17.102V161.937
		c0-9.446,7.656-17.102,17.102-17.102h119.716c9.446,0,17.102,7.656,17.102,17.102v102.614
		C213.244,273.997,205.588,281.653,196.142,281.653z"/>
</g>
<path style="fill:#464655;" d="M102.079,59.324c0-9.446,7.658-17.102,17.102-17.102H25.119c-9.445,0-17.102,7.656-17.102,17.102
	c0,9.445,7.658,17.102,17.102,17.102h94.063C109.737,76.426,102.079,68.768,102.079,59.324z"/>
<path style="fill:#AFB9D2;" d="M427.023,332.96v-25.653c0-4.722,3.829-8.551,8.551-8.551h-42.756c-4.722,0-8.551,3.829-8.551,8.551
	v25.653c0,4.722,3.829,8.551,8.551,8.551h42.756C430.852,341.511,427.023,337.683,427.023,332.96z"/>
<path style="fill:#BAEFFF;" d="M435.574,452.676c0-17.875,11.672-40.385,22.821-57.837c-3.827-5.559-7.326-10.27-9.89-13.602
	c-2.224-2.889-6.533-2.889-8.757,0c-10.901,14.158-38.378,52.569-38.378,79.99c0,23.613,19.142,42.756,42.756,42.756
	c10.007,0,19.09-3.581,26.376-9.34C450.637,490.957,435.574,473.607,435.574,452.676z"/>
<path d="M503.449,292.818v-11.165c0-70.433-57.3-127.733-127.733-127.733H219.942c-3.354-9.93-12.752-17.102-23.8-17.102h-9.086
	v-9.086c0-13.851-11.268-25.119-25.119-25.119h-0.534V84.443h86.046c13.851,0,25.119-11.268,25.119-25.119
	S261.3,34.205,247.449,34.205h-86.046v-9.086C161.403,11.268,150.135,0,136.284,0c-13.851,0-25.119,11.268-25.119,25.119v9.086
	H25.119C11.268,34.205,0,45.473,0,59.324s11.268,25.119,25.119,25.119h86.046v18.171h-0.534c-13.851,0-25.119,11.268-25.119,25.119
	v9.086h-9.086c-11.048,0-20.446,7.172-23.8,17.102H8.017c-4.427,0-8.017,3.589-8.017,8.017v102.614c0,4.427,3.589,8.017,8.017,8.017
	h44.609c3.354,9.93,12.752,17.102,23.8,17.102h119.716c11.048,0,20.446-7.172,23.8-17.102h155.774c5.01,0,9.086,4.076,9.086,9.086
	v11.165c-5.093,2.829-8.551,8.26-8.551,14.489v25.653c0,9.136,7.432,16.568,16.568,16.568h102.614
	c9.136,0,16.568-7.432,16.568-16.568v-25.653C512,301.078,508.542,295.647,503.449,292.818z M127.198,25.119
	c0-5.01,4.076-9.086,9.086-9.086c5.01,0,9.086,4.076,9.086,9.086v9.086h-18.171V25.119z M16.033,59.324
	c0-5.01,4.076-9.086,9.086-9.086h222.33c5.01,0,9.086,4.076,9.086,9.086s-4.076,9.086-9.086,9.086H25.119
	C20.109,68.409,16.033,64.333,16.033,59.324z M127.198,84.443h18.171v18.171h-18.171V84.443z M101.545,127.733
	c0-5.01,4.076-9.086,9.086-9.086h51.307c5.01,0,9.086,4.076,9.086,9.086v9.086h-69.478V127.733z M16.033,169.954h35.273v86.58
	H16.033V169.954z M196.142,273.637H76.426c-5.01,0-9.086-4.076-9.086-9.086V161.937c0-5.01,4.076-9.086,9.086-9.086h119.716
	c5.01,0,9.086,4.076,9.086,9.086v102.614C205.228,269.561,201.152,273.637,196.142,273.637z M375.716,256.534H221.261v-86.58
	h154.455c61.592,0,111.699,50.108,111.699,111.699v9.086h-86.58v-9.086C400.835,267.803,389.567,256.534,375.716,256.534z
	 M495.967,332.96c0,0.295-0.239,0.534-0.534,0.534H392.818c-0.295,0-0.534-0.239-0.534-0.534v-25.653
	c0-0.295,0.239-0.534,0.534-0.534h102.614c0.295,0,0.534,0.239,0.534,0.534V332.96z"/>
<path d="M450.284,370.584c-1.523-1.828-3.78-2.885-6.159-2.885s-4.636,1.057-6.159,2.885c-0.45,0.541-11.164,13.447-22.017,30.812
	c-14.994,23.99-22.596,44.121-22.596,59.831c0,27.995,22.777,50.772,50.772,50.772s50.772-22.777,50.772-50.772
	c0-15.711-7.602-35.841-22.596-59.831C461.448,384.03,450.734,371.125,450.284,370.584z M444.125,495.967
	c-19.155,0-34.739-15.584-34.739-34.739c0-21.804,21.359-54.782,34.741-72.56c13.384,17.765,34.737,50.721,34.737,72.56
	C478.864,480.382,463.28,495.967,444.125,495.967z"/>
</svg>